<svg id="pmg_logo" data-name="Layer 1" xmlns="http://www.w3.org/2000/svg" viewBox="0 0 250.34 127.78">
                        <rect class="cls-1" x="0.6" y="92.02" width="0.3" height="4.39"></rect>
                        <rect class="cls-1" x="42.34" y="45.9" width="0.3" height="1.74"></rect>
                        <rect class="cls-1" x="0.91" y="86.88" width="0.3" height="1.74"></rect>
                        <rect class="cls-1" x="42.34" y="35.23" width="0.3" height="1.44"></rect>
                        <path class="cls-1" d="M71.29,42.88q-.67-.75-1.81-5.52a.27.27,0,0,0-.3.31l-.61-.31,1.82,6V44h-.31a40.09,40.09,0,0,0-2.11-7l.6.3v-.6h.31v.6h.3v-.3a3.94,3.94,0,0,0-.8-2c-.8-2.52-2.56-7.26-5.36-10.36a30.88,30.88,0,0,0-8.45-6.05c0-.23,0-.48,0-.48-.45-.12-1.76-.57-3.09-1a62.64,62.64,0,0,0-6.51-2.52,114,114,0,0,0-13.19-3,8.56,8.56,0,0,0-1-1.62l-.61.23h-.3c0-.56-.2-.83-.61-.83v.3l.31.53h-.31c-.4,0-.6-.38-.6-1.13h-.3v.6h-.3v-.3a2.26,2.26,0,0,0,.3-1.14V8a2.39,2.39,0,0,1-1.21-.3c-.3.56-.61.83-.91.83V8.25c-1.31,0-2,.08-2.12.23L23.21,8c-.41,0-.61.28-.61.83l-.6-.3v.61l-1.52-.31h-.3v.61a.27.27,0,0,0,.3-.3h.31a2.2,2.2,0,0,0-.31.9h-.3v-.6l-.6.3L19,9.39a1.7,1.7,0,0,0-1.51,1.74h-.3v-.61L16,11.66v-.53h-.31q-2.49,9.23-3.32,9.22-1.52,11-2.72,23.36a8.12,8.12,0,0,1,.3,2c0,.2-.2.3-.61.3L9.6,47.5v.83l-.31.6H9.6a22.22,22.22,0,0,0-.31,3.48H9V51.5h-.3v.31l.3,2c0,1.11-.1,2.64-.3,4.61L9,59a2.39,2.39,0,0,1-.3.91Q9,69.8,9,75.47v7.79q0,2-.3,6.35l.6-.3v2.57H9v-2h-.3v1.74a8.29,8.29,0,0,1,.91,3.71v2.87H9.29V97.7H9V98a9.56,9.56,0,0,0,.61,2.88,1.91,1.91,0,0,1-.31.83c.2,0,.41.3.61.91q-.3,9.9-.3,10.35l.6.84v.3l-.3.6c.2,0,.3.21.3.61l.61-.3v.83a24.89,24.89,0,0,1,2.42,8.09h.6v-.61c.25,0,.76.58,1.51,1.74l.61-.22a2.44,2.44,0,0,0,.3.83.27.27,0,0,0-.3.3v2.57l.3,2a.27.27,0,0,0-.3.3c.4,0,.6.18.6.53l.91-.53v.84l.6-.31c0,.81.21,1.21.61,1.21V132H19c.15,1,.46,1.44.91,1.44l1.21-.84a2.47,2.47,0,0,0,.3.84.54.54,0,0,0,.61-.61l1.51.61a2.31,2.31,0,0,0,.3-1.14l.91.53H25v-.53h.61a1.86,1.86,0,0,0,.3.83c.4,0,.6-.17.6-.53l.91-1.21h.3c0,.61.2.91.61.91l.9-.6,1.21-.84-.3-.6v-.61l.61.31q2.42,0,2.42-27.37V80.92l10.64-.46c8.37-1.36,14.39-1.62,19.23-7.13,9-13.91,8.23-20.47,8.23-27.88ZM10.2,112.67H9.9v-1.74h.3Zm3,9h-.31a14.75,14.75,0,0,0-.3-2.65v-.3h.3l.31,1.44Zm2.41-108q0,.9-.6.9a8.56,8.56,0,0,0,.3-1.21h.3ZM51.33,48V46.06h.31C51.64,46.29,51.49,47,51.33,48ZM34.09,31.92v1.44h-.3V31.92ZM31.36,11.55,31,11.48c-.15-.29-.3-.58-.54-1C30.73,10.52,31,10.87,31.36,11.55ZM51,63.6V57.85h-.3v6.66l-.3,1.43-.61-.3q0,2.58-6,6.35h-.91c-2,0-3-.37-3-1.13a2.41,2.41,0,0,0-1.21.3,2.41,2.41,0,0,0-1.21-.3V69.73c-.2,0-.3.07-.3.22-.2,0-.3-.07-.3-.22-1,0-1.52.27-1.52.83h-.6v-.83L33.19,70v-.22c1.21-22.28,2.24-40,2.65-44.25C44.3,26.56,47.7,34.26,47.7,36.23H48v-.3a3.38,3.38,0,0,0-.61-1.44l.61-.3v.3a34.39,34.39,0,0,1,1.81,3.18h-.3a47.47,47.47,0,0,1,1.81,6.95v1.14H51V44.32h-.3v.83l.3,3h.29A30.92,30.92,0,0,0,51,55.28v.53l-.6-.22c.15,1.31.35,2,.6,2s.3,2,.3,6.05Zm.91-4.31h-.3V58.16h.3ZM65.25,39.1h-.31a1.86,1.86,0,0,0-.3-.83V38h.3a1.78,1.78,0,0,0,.31.83Zm1.21,10.36h-.31V48.33h.31Z" transform="translate(-8.08 -7.65)"></path>
                        <rect class="cls-1" x="0.3" y="61.47" width="0.3" height="15.58"></rect>
                        <rect class="cls-1" x="1.21" y="96.93" width="0.3" height="1.44"></rect>
                        <path class="cls-1" d="M50.12,40.31h-.3v.53l.3,2h.31V42C50.43,41.88,50.32,41.32,50.12,40.31Z" transform="translate(-8.08 -7.65)"></path>
                        <rect class="cls-1" y="50.21" width="0.3" height="2.04"></rect>
                        <path class="cls-1" d="M48.31,36.83a26.47,26.47,0,0,0,1.21,3.48h.3v-.6C49.17,37.79,48.66,36.83,48.31,36.83Z" transform="translate(-8.08 -7.65)"></path>
                        <rect class="cls-1" x="1.21" y="94.97" width="0.3" height="1.74"></rect>
                        <polygon class="cls-1" points="160.79 113.79 161.09 113.79 161.16 111.98 160.86 111.98 160.79 113.79"></polygon>
                        <polygon class="cls-1" points="160.1 120.45 160.41 120.45 160.48 114.1 160.18 114.1 160.1 120.45"></polygon>
                        <polygon class="cls-1" points="160.71 118.63 161.01 118.63 161.09 114.4 160.79 114.4 160.71 118.63"></polygon>
                        <path class="cls-1" d="M144.14,19.37c-.4,0-.6.3-.6.91v.3h.3Z" transform="translate(-8.08 -7.65)"></path>
                        <polygon class="cls-1" points="139.69 47.18 139.62 48.39 139.92 48.39 139.99 47.18 139.69 47.18"></polygon>
                        <rect class="cls-1" x="102.41" y="97.92" width="0.3" height="1.51"></rect>
                        <polygon class="cls-1" points="101.96 88.54 102.26 88.54 102.34 86.12 102.04 86.12 101.96 88.54"></polygon>
                        <path class="cls-1" d="M171.52,60.73v-.31h-.31V61h-.3a26.26,26.26,0,0,0-.23-4.84H171l-.23-.6V54.07l.3-.6-.6-.3.38-1.82a39.34,39.34,0,0,1-.23-5.44l-.3-.61h.3Q170,44,169.1,31a.27.27,0,0,0,.3-.3.54.54,0,0,1-.61-.61.27.27,0,0,1,.31-.3,29.73,29.73,0,0,0-2.27-7.56h-.3v.61c-.31-.05-.61-.38-.91-1v-.3l.6.08v-.31a4.31,4.31,0,0,1-2.42-1.28q-.6.07-.6.6c.4.05.6.26.6.61h-.3A5.34,5.34,0,0,1,161.16,17h-.31l-.6.3v-.91h-.61V17h-.3c0-.61-.4-1.11-1.21-1.51,0-.41-.17-.63-.53-.68a2,2,0,0,0-.37.9h-.31l-.6-.3a.27.27,0,0,1-.3.3l.07-1.21a2.45,2.45,0,0,0-.91.31l-1.51-.38.3-.53-1.21-.08v.61a.8.8,0,0,1-.9-.91h-.31v.61H151v-.61l-.91.91a2,2,0,0,0-.9-.38,4.69,4.69,0,0,0-.38.91h-.31l-.22-1.52h-.3c-.66,1.82-1.29,2.73-1.9,2.73a2.28,2.28,0,0,0,.31-.91v-.3H146a10.66,10.66,0,0,0-1.51,3.55v.3h.31v-.6h.3v.6l-.68.31c.05-.2,0-.31-.23-.31l-.08.31.31.6a8.65,8.65,0,0,0-1.21,3h-.31v-.31a2.2,2.2,0,0,0,.31-.9v-.31h-.31a3.32,3.32,0,0,1-.6,1.52,12.71,12.71,0,0,1,.53,2.41l-.61.31a2.28,2.28,0,0,0,.31-.91v-.3h-.31v.6H142v-.6h-.3l-2.57,7.48V32h.3v-.61h.3V32H140a15,15,0,0,1,.37-1.82h.31v.61c-.31,1-.63,1.51-1,1.51a.27.27,0,0,0-.3-.3v.6h-.3V32h-.3Q135.6,40.24,132,56.64a.27.27,0,0,0-.3.31h.3c-1.31,5.64-2.17,8.77-2.57,9.37h-.3V65.11l-.3-.07v.9h-.31Q122,43,118.74,38a29.83,29.83,0,0,0-5.29-10.36,5.41,5.41,0,0,0-.53-2.8c.2.05.3,0,.3-.22a.36.36,0,0,1-.3-.38c.2.05.3,0,.3-.23l-.91-.68a.27.27,0,0,1-.3.3l.3-.6v-.3a.27.27,0,0,0-.3.3c-.6,0-.88-.41-.83-1.21h-.3v.6h-.31l-.3-1.51h-.91c0,.41-.1.61-.3.61-.55-.16-1-.69-1.21-1.59l-1.51.6c0-.45-.41-.85-1.21-1.21l-.3-.07v.6h-.91v-.6l-.91.6v-.6h-.6c0,.8-.2,1.21-.61,1.21a6.73,6.73,0,0,1-.6-1.52c-1.21,0-1.82.64-1.82,2.05a2.36,2.36,0,0,1,.31.9l-.61-.3v.3a.8.8,0,0,1-.91-.9h-.3l-.91.6-.6-.38a.27.27,0,0,1-.3.31v-.61l-.91.61a.27.27,0,0,0-.3-.31.28.28,0,0,1-.31.31l-.3-.61a.27.27,0,0,0,.3-.3H93.33l-.6.3a2.85,2.85,0,0,1-.3-1H91.22a.27.27,0,0,0-.31.3,4.87,4.87,0,0,0-2.11-.6c0,.4-.26.57-.61.52q-.07-.6-.6-.6v.6l-.61-.3h-.3l.61.91H87l-.6-.3a.27.27,0,0,1-.3.3.27.27,0,0,0-.31-.3c-.45,1-.75,1.51-.9,1.51L84,21.86l-.68,1.21a2.39,2.39,0,0,1,.3.91v.61h-.3V23.38H83v1.51q-.08,1.89,1.13,18.45h-.3q.52,2.11.9,33.34.54,0,.46,24.2L87,120.23a13.28,13.28,0,0,0,1.67,4.31v.31H89l.6-.31.31.61c-.21,0-.31.1-.31.3,1.21.35,1.82.76,1.82,1.21l.91.08a8.69,8.69,0,0,1-1.21-1.59h.3l2.72,2.49h.3a6.3,6.3,0,0,1-1.21-2.42c1.46,2,2.67,3.06,3.63,3.1l-.07.31-.31.6c.16,0,.76.1,1.82.3l-.3.61,1.51.3.6-.23c.81.21,1.21.61,1.21,1.21h.91v-.6h.3c.41.05.61.25.61.6l.6-.3.31.08q0,.6.3.6l1.21-.3a2.3,2.3,0,0,0,.9.3.54.54,0,0,1,.61-.6.53.53,0,0,0,.6.6h.31l.9-.53v.3a2.44,2.44,0,0,1,1.21-.3,2.3,2.3,0,0,1-.3-.9,2.39,2.39,0,0,0,.3-.91h.61v.6h.3v-.9l.61.3v-.3a92.72,92.72,0,0,1-.68-10.59h-.31v.91h-.3v-.31c.2-1.36.33-2.46.38-3.32v-1.51l-.61-.91v-.91l.61.3v-.3c-.3-3.53-.66-5.54-1.06-6v-.3l.61.3.07-2.42H110l-.08.61h-.3v-.31A19.2,19.2,0,0,0,110,101a2.66,2.66,0,0,0-.23-1.51,2.34,2.34,0,0,1,.3-.91l-.45-9.07c.2-.61.4-.91.61-.91q-.47-6.73-.31-13v-.9h.31l-.08,1.21h.3l.08-1.82h.3q2.79,12.26,6.28,18.6V94.9l1.66,7h-.3a.28.28,0,0,0-.31-.31v2.72c-.45,0,2,.81,1.43,3.79l-.07,1.21a3,3,0,0,1,1.21,2.19l.6-.3a2.39,2.39,0,0,1,.3,1.21l.61-.31c0,.41.12.61.53.61h.6l.38-1.82h.3l-.07,1.82c.4,0,.63-.23.68-.83h.3l-.08,1.81h.61v-.91a.81.81,0,0,1,.91.91c.4,0,.73-.6,1-1.81h.3l-.07,2.11h.3a2.36,2.36,0,0,1,1.51-.22v.3H130c0-.61.2-.91.6-.91,0,.61.2.91.61.91h.6c0-.5.4-.78,1.21-.83a.27.27,0,0,0,.3.3,2.34,2.34,0,0,0,.3-.91l.61.3a5.15,5.15,0,0,1,2.49-2.34.27.27,0,0,0,.31.3v-.3a2.4,2.4,0,0,1-.31-.91l.61-.3a.53.53,0,0,0,.6.61l.31-.61h-.61v-.6l.61.3v-.3a47.93,47.93,0,0,1-1.36-5.15l.3-1.51a2.39,2.39,0,0,0-.3-.91,21.59,21.59,0,0,0,.68-3v-.6h-.31c0,.15-.1,1-.3,2.42l-.3-.08v-.61a99.11,99.11,0,0,1,2.87-11.11h-.3A18.32,18.32,0,0,0,140.29,84h.3l-.07,1.51h.3a21.9,21.9,0,0,1,.68-3.86v-.91h-.3c-.21,1.72-.31,2.7-.31,2.95h-.3v-.6l2.65-12.33h.3l-.08,1.52h.31l.37-2.12v-.91h-.3v1.21h-.3v-.6q0-2,3.93-17.47h.3l-.3,1.51v.91c.4,0,.61-.8.61-2.42h.3a83.22,83.22,0,0,1,.45,9.38l-.15,9.07a.27.27,0,0,0,.3.3,5.19,5.19,0,0,0-.37.91c0,1.61-.16,4.54-.46,8.77a2.39,2.39,0,0,1,.3.91q-.52,1.13-1.66,10.28l.23.61c0,1.41-.2,2.11-.61,2.11l.31.61q-1.36,6.8-3.1,20.79l-.08,2.72a2.85,2.85,0,0,1,.91,1.82h.3l.6-.23c0,.45.43,1.06,1.44,1.81a4.24,4.24,0,0,0,.68-1.81h.3L147.7,122h.6v-.91h.31c0,1.42.2,2.15.6,2.2,0-.61.2-.91.61-.91h.3a.53.53,0,0,0,.6.61v1.81h.61l-.3-.61v-2.41h.3q.45,10,1.66,10.05c0,.81.5,1.21,1.51,1.21l-.37.61c.15,0,.75.1,1.81.3a1.49,1.49,0,0,1,.91-.23c0,.25.4.66,1.21,1.21l.9-.6.31.6.6-.3.91.6.6-.22h1.52v-.31a4.53,4.53,0,0,0,1.81.61,16,16,0,0,1,2.19-2l.53.3a3.2,3.2,0,0,0,.68-1.81v-2.12h-.3V132h-.3v-1.82c.2-1.21.43-1.81.68-1.81l-.3-.61.07-5.74.61-.91c-.41,0-.58-.2-.53-.6a.53.53,0,0,0,.6-.61.27.27,0,0,0-.3-.3c0-.4.1-.61.3-.61-.15-2.52-.22-4-.22-4.53l.15-7h.3l-.15,6.65h.3l.15-7.56h-.3q.52-1,1.51-16.25c.61,0,1-3.73,1.14-11.19l.07-3.94a88.35,88.35,0,0,0-.38-12.7A3.63,3.63,0,0,0,171.52,60.73Zm-87.11-33,.3.6v.3h-.3a2.85,2.85,0,0,0-.3-1Zm0,1.43.3.08c0,.4.11.6.31.6a5.44,5.44,0,0,0-.38.91l-.3-.08Zm.46,6.43h-.31l.08-.91a.27.27,0,0,0,.3-.3.27.27,0,0,1-.3-.3h.3a.27.27,0,0,0,.3.3A2,2,0,0,0,84.87,35.55Zm1.81,68.05v-1.21c.4,0,.61.25.61.6S87,103.6,86.68,103.6Zm1,10h-.3l.08-1.51h.3ZM110,114.64h.31l-.08,2.42H110Zm-.37-28.43h-.31l.08-2.72h.3Zm15.65-28.43v-.3h.3a2.3,2.3,0,0,0,.3.9h-.3Zm2,7a57.42,57.42,0,0,0-1.66-6q.45.08,2.27,6Zm9.53,41.67h.3a8.52,8.52,0,0,0,.31,1.21c-.41,0-.61-.31-.61-.91Zm-6.28-38.26a9.33,9.33,0,0,1-.3,1.21h-.3v-.91a8.18,8.18,0,0,0,.38-1.21h.3Zm.38-1.51-.6-.31a2.3,2.3,0,0,0,.3-.9h.3ZM132.2,60l-1,4.84h-.61a26.45,26.45,0,0,0,1.29-5.14h.3Zm.38-.6H132v-.31a2.3,2.3,0,0,0,.3-.9h.31Zm.6-2.65a1.86,1.86,0,0,0-.3.83h-.3v-.91a2.3,2.3,0,0,0,.3-.9l.3.07Zm2.35-10.59-2,9.08h-.3V54.6c1.31-5.59,2-8.62,2-9.07h.31Zm.6-2.42-.3,1.52h-.3V44a5.19,5.19,0,0,0,.37-.91h.31Zm1.29-4.15a.54.54,0,0,1-.53-.68v-.31c.4.11.6.33.6.68Zm1,47.18h-.3v-.91c.2-1.06.32-1.66.37-1.81h.61A8.39,8.39,0,0,0,138.4,86.74Zm0-49.6h-.3v-.31c.25-1.21.57-1.81,1-1.81A6.4,6.4,0,0,0,138.4,37.14Zm3.25-10.82.3.61-.07.3h-.31a1.73,1.73,0,0,0-.22-1ZM140.36,29a2.34,2.34,0,0,0,.91-.3V29c-.05.41-.25.61-.6.61Zm1.29,43.63-.61-.08.38-1.43h.31Zm.68-36.29A14.24,14.24,0,0,0,141,40.16h-.3v-.6A17.07,17.07,0,0,0,142,36h.3Zm2.57-7.26a54.27,54.27,0,0,0-2.27,6.65h-.3l.08-.6c.2-.36.93-2.47,2.19-6.36h.3Zm1-2.35a1.65,1.65,0,0,0-.37.83h-.31v-.3a2,2,0,0,0,.38-1.21l.3.08Zm2.2,25.11h-.31l.08-1.52h.3ZM167.66,123h-.3v-1.82h.3Zm2.42-30.48h-.3V91.27h.3Zm.6-33h-.3V58.31h.3Z" transform="translate(-8.08 -7.65)"></path>
                        <polygon class="cls-1" points="137.04 56.78 137.35 56.86 137.42 55.35 137.12 55.27 137.04 56.78"></polygon>
                        <polygon class="cls-1" points="136.06 61.62 136.36 61.62 136.44 59.51 136.14 59.51 136.06 61.62"></polygon>
                        <polygon class="cls-1" points="137.42 54.74 137.42 55.35 137.72 55.35 138.03 53.23 138.03 52.63 137.72 52.63 137.42 54.74"></polygon>
                        <polygon class="cls-1" points="129.48 89.98 129.78 89.98 129.86 88.47 129.56 88.47 129.48 89.98"></polygon>
                        <path class="cls-1" d="M142.56,75.93l-.08.6h.3a14.44,14.44,0,0,0,.38-1.81v-.91h-.3Z" transform="translate(-8.08 -7.65)"></path>
                        <rect class="cls-1" x="135.08" y="64.65" width="0.3" height="1.51"></rect>
                        <polygon class="cls-1" points="139.01 48.69 139.31 48.69 139.39 47.18 139.09 47.18 139.01 48.69"></polygon>
                        <path class="cls-1" d="M146.49,58.16v.6h.3c.2-1.06.3-1.66.3-1.81v-.61h-.3C146.79,56.49,146.69,57.1,146.49,58.16Z" transform="translate(-8.08 -7.65)"></path>
                        <polygon class="cls-1" points="138.03 52.63 138.33 52.63 138.41 51.11 138.1 51.11 138.03 52.63"></polygon>
                        <path class="cls-1" d="M144.52,66.25v.9h.31l.3-2.11v-.61h-.3C144.83,64.58,144.72,65.19,144.52,66.25Z" transform="translate(-8.08 -7.65)"></path>
                        <path class="cls-1" d="M138.93,91.88l-.08.6h.3a14.06,14.06,0,0,0,.38-1.81v-.61h-.3C139,91.12,138.93,91.73,138.93,91.88Z" transform="translate(-8.08 -7.65)"></path>
                        <path class="cls-1" d="M141.5,80.46v.3h.3l.68-3.63v-.6h-.3C141.73,79,141.5,80.26,141.5,80.46Z" transform="translate(-8.08 -7.65)"></path>
                        <path class="cls-1" d="M137.94,95.51v.6h.31c.2-1.06.3-1.66.3-1.81v-.61h-.3A18,18,0,0,1,137.94,95.51Z" transform="translate(-8.08 -7.65)"></path>
                        <rect class="cls-1" x="130.47" y="84.84" width="0.3" height="1.21"></rect>
                        <rect class="cls-1" x="131.45" y="80.9" width="0.3" height="1.51"></rect>
                        <path class="cls-1" d="M139.91,88l-.08.6h.31l.38-2.11v-.91h-.31A15.48,15.48,0,0,1,139.91,88Z" transform="translate(-8.08 -7.65)"></path>
                        <rect class="cls-1" x="179.88" y="75.46" width="0.3" height="1.51"></rect>
                        <rect class="cls-1" x="177.76" y="54.29" width="0.3" height="2.42"></rect>
                        <rect class="cls-1" x="219.5" y="90.28" width="0.3" height="1.21"></rect>
                        <path class="cls-1" d="M257.22,83.11c0-.41-.3-.61-.91-.61v-.3l2.12-.6c0-.41-.61-.61-1.82-.61v-.3h.91v-.3l-2.12-.61v-.3H256v-.61c-2.82,0-4.24-.2-4.24-.6q-9.68-.52-9.67-2.72a2.29,2.29,0,0,0-.91.3,5.25,5.25,0,0,1-2.72-1.51l-.91.6H237v-.3h-.91l-10.18-.13-8.77,0c-.1,0-1.38.26-1.38.26s0,.34,0,.5.44.21.44.21h.6l-.07.57s-1.64-.1-1.64.07a10.17,10.17,0,0,0,.23,1s1.68.1,1.92.1-.1.74-.1.74l-.94,0,.06-.34a4.1,4.1,0,0,0-.63-.1,1.2,1.2,0,0,0-.31,0,1,1,0,0,0,.2.64.31.31,0,0,1,0,.47l1.58.27s0,1.25-.13,1.25-.67,0-.67,0l.06.94,1.42.07.2.3-1.85-.07v.51l.91.7,2,.2-.17.31h-.3l0,.4s3,.2,3.43.2.06.71.06.71,1.85.77,2,.77a14.77,14.77,0,0,1,2.08.1c.17.1.17.81.4,1.48s0,.54.14.74.4-.07.4-.07l0-.63.57-.14-.3,3.73H227a4.44,4.44,0,0,1,.61,2.72l.6-.3v5.74l-.3,2.12a.27.27,0,0,1,.3.3c-.75,4.39-1.36,6.81-1.81,7.26a20.58,20.58,0,0,1-4.84,8.77h-1.21a.27.27,0,0,0,.3.3v.31q-2.56,0-4.84-18.45l.31-.61-.61-.3c0-.35.2-.55.61-.6a3.37,3.37,0,0,0-.61-1.52,2.39,2.39,0,0,0,.3-1.21V93.69a18,18,0,0,0-.9-5.14c.6-.75-.31-1.29-.31-1.74,0,0-.43-1.18-.9-1.28s-.6-1.31-.67-1.67a10.46,10.46,0,0,1,.27-1.92,11.35,11.35,0,0,1-.07-2.16,7.28,7.28,0,0,0-.13-2.62c-.2-.94-.74-2.35-.88-2.82a1.58,1.58,0,0,1-.09-.65c.23-.65-.23-.94-.17-1.33a4.79,4.79,0,0,0-.09-1.37,7.16,7.16,0,0,1-.9-4.21h.61l-.61-.91.31-.61q-.84,0-2.12-10.88a2.34,2.34,0,0,1,.3-.91c-.2,0-.4-.3-.6-.91l.3-.6c-.2-2.52-.3-3.94-.3-4.24q1.2-10.57,3.63-10.58v-.61a.27.27,0,0,0-.31.3h-.3l1.21-2.11a.27.27,0,0,1,.3.3q5.22-5.75,7.87-6.35C223,29.78,224,30.59,224,31.09c2.42,2.12,3.63,4.13,3.63,6.05h.3v-.61h.3v5.14a35.89,35.89,0,0,1-1.51,8.77h.61a8.89,8.89,0,0,1,.3-2.11h.3v.3a11.1,11.1,0,0,0-.6,2.72c.4,0,.6.3.6.91h.3c0-.5.51-1.21,1.52-2.12a24.1,24.1,0,0,1-.31,3.33v.3c.61,0,.91-.5.91-1.51h.3v.91l.61-.31v1.21h.3v-.9h.61a4.52,4.52,0,0,0,.9,3v3.93c0,1,.31,1.62.91,1.82v-.61h.3a1.9,1.9,0,0,0,1.52,1.82.27.27,0,0,1,.3-.31h.3v.61a5.35,5.35,0,0,1,1.81-.61c0,.61.21.91.61.91v-.3a2.6,2.6,0,0,1,1.51.3c.2,0,.3-.5.3-1.51h.61c0,.81.2,1.21.6,1.21a2.28,2.28,0,0,1,.31-.91c.4,0,.6.3.6.91h.61l.3-1.21.6.3.31-1.21h.3v1.21h.6a.53.53,0,0,0,.61-.6l.6.3a.81.81,0,0,1,.91-.91v-.6l-.3-.61c1-.15,1.51-.45,1.51-.9V48.93q0-6-1.21-6V41.07l-3-11.49h-.31v.3a2.28,2.28,0,0,0,.31.91v.3h-.31q0-1.36-3.93-6.66v-.3l.91.61v-.31q-6.58-9.36-20-9.37a56.55,56.55,0,0,0-6,.6q-9.45,1.21-14.52,5.75a.27.27,0,0,0,.3.3l-.6.91a.27.27,0,0,1-.3-.3c-1.41,1.11-2.12,1.81-2.12,2.11v.31c.6-.31.91-.61.91-.91h.3c-1,1.06-1.51,1.86-1.51,2.42h-.31V26l.31-.61V25c-1.11,1.61-1.82,2.42-2.12,2.42a.27.27,0,0,0,.3.3q-6.8,11.79-9.37,28.43h.3l-.61,3q.31,4.08.31,7v1.51c0,1.62-.1,3.53-.31,5.75v.3h.31V71.62h.3A63.29,63.29,0,0,0,188,80.08V81h-.3V79.78h-.31v.91l.31,2.12h.3V81.29h.3q0,3.25,2.72,12.1v.3h-.3a30.78,30.78,0,0,1-1.51-5.44h-.3v.6q4.83,16,4.84,18.45h.3v-1.21h.3a27.64,27.64,0,0,0,1.82,6v.61h-.31l-1.21-4.24h-.3v.31a23,23,0,0,0,1.51,4.84,19.66,19.66,0,0,1,2.12,7.56h.3V119.4h.3v1.21q0,.67-.3,3.33v.91h.3v-2.12h.31a39.2,39.2,0,0,0,1.51,8.47c.2,0,.3-.1.3-.31h.3l-.3.61c-.5,0-.91-.91-1.21-2.72h-.3v.6q0,4,8.17,6.05,5.28,0,14.21-2.72a22.88,22.88,0,0,0,13.31-10.59h.3l-.3.61h.6c0-.61.2-.91.61-.91l-.3-.6v-.61c1.81-1.06,2.72-1.86,2.72-2.42h-.31a.27.27,0,0,1,.31-.3q6.34-10.74,6.35-15.73a.27.27,0,0,1-.3-.3h.3a.27.27,0,0,0-.3-.3.27.27,0,0,1,.3-.31q0-1.05.3-6.35c-.6-3.93-1.11-6.15-1.51-6.65v-.91h.3V88h.3V85.53h.61a9.44,9.44,0,0,1,2.42.3c2-.2,3-.5,3-.91l2.72.31v-.31l-.3-.6A18.74,18.74,0,0,0,256,84a.27.27,0,0,0-.3-.31C255.71,83.31,256.21,83.11,257.22,83.11ZM244.52,32.6a.27.27,0,0,0,.3-.3h.3a.27.27,0,0,1-.3.3l.3,1.81v.91h-.3a22.54,22.54,0,0,0-.61-3A.27.27,0,0,1,244.52,32.6Zm-3.94-7h.31a2.29,2.29,0,0,0,.3.91l-.61-.3ZM228.49,38.35h.3v4.23h-.3ZM187.05,67.68h-.3V65h.3Zm.91-13a10.7,10.7,0,0,0-.3,2.72h-.31V56.19c0-.15.11-.76.31-1.81h.3Zm0-3.33h-.3a2.39,2.39,0,0,0,.3-1.21h.3v.61Zm.91,21.48c-.36,0-.56-.2-.61-.61v-.3h.61Zm.9-27.53h-.6l.3-1.51h.3ZM201,128.47v-.9h.31a2.3,2.3,0,0,0,.3.9Zm7-77.42h.3a4.19,4.19,0,0,0,.31,2.12l-.61.3Zm.3,4.54v-.31c.41,0,.71,1.11.91,3.33C208.68,58.61,208.37,57.6,208.22,55.59Zm2.42,13h-.3c-.6-4.08-1.11-6.9-1.51-8.47v-.6h.3q1.51,7.63,1.51,8.47Zm.88,4.62h-.31a2.83,2.83,0,0,1-.3-.6V71.25h.3a10.13,10.13,0,0,0,.31,1.66Zm.69,9.19-.1.37-.29-.09a40.42,40.42,0,0,0,0-5.52l.1-.36.29.08A42.29,42.29,0,0,1,212.21,82.4ZM213.67,88c.35,0,.65.71.9,2.11h-.3c0,.21.1.31.3.31v1.81h-.3Q214,88.32,213.67,88Zm.9,7h.31v1.52h-.31Zm.31,3h.3c0,.45.1,1.56.3,3.32v.61h-.3a9.33,9.33,0,0,1-.3-1.21Zm.9,11.49h-.3a3.1,3.1,0,0,0-.3-1.51h.6Zm1.52,3.63c-.46,0-1.06-2.92-1.82-8.77v-.61h.3c.61,4.44,1.11,7.46,1.52,9.08Zm11.49-15.12h-.3V96.42h.3Z" transform="translate(-8.08 -7.65)"></path>
                        <path class="cls-1" d="M188.56,84.92h-.3v.91a15.48,15.48,0,0,1,.3,2.42h.31v-.91A14.38,14.38,0,0,1,188.56,84.92Z" transform="translate(-8.08 -7.65)"></path>
                        <path class="cls-1" d="M186.75,74.64h-.3v.91a15.35,15.35,0,0,1,.3,2.42h.3v-.91A15.48,15.48,0,0,1,186.75,74.64Z" transform="translate(-8.08 -7.65)"></path>
                        <path class="cls-1" d="M198.85,125.75h-.31v.91l.31,2.12h.3v-.61A15.22,15.22,0,0,1,198.85,125.75Z" transform="translate(-8.08 -7.65)"></path>
                        <rect class="cls-1" x="177.15" y="55.8" width="0.3" height="4.23"></rect>
                        <rect class="cls-1" x="177.76" y="60.04" width="0.3" height="2.12"></rect>
                        <rect class="cls-1" x="185.92" y="99.66" width="0.3" height="1.21"></rect>
                        <path class="cls-1" d="M241.79,25.64v-.3q0-.53-.6-.6V25A.53.53,0,0,0,241.79,25.64Z" transform="translate(-8.08 -7.65)"></path>
                        <rect class="cls-1" x="178.97" y="70.32" width="0.3" height="1.81"></rect>
                        <path class="cls-1" d="M212.76,35.62v.31a.53.53,0,0,0,.6-.61V35Q212.83,35,212.76,35.62Z" transform="translate(-8.08 -7.65)"></path>
                        <path class="cls-1" d="M243.61,28.37v-.31c-1-1.61-1.56-2.42-1.82-2.42C242.5,27.46,243.1,28.37,243.61,28.37Z" transform="translate(-8.08 -7.65)"></path></svg>