<svg width="24" height="24" viewBox="0 0 24 24" fill="none" xmlns="http://www.w3.org/2000/svg">
<path d="M10.2222 4H4.88889C4.65314 4 4.42705 4.09365 4.26035 4.26035C4.09365 4.42705 4 4.65314 4 4.88889V10.2222C4 10.458 4.09365 10.6841 4.26035 10.8508C4.42705 11.0175 4.65314 11.1111 4.88889 11.1111H10.2222C10.458 11.1111 10.6841 11.0175 10.8508 10.8508C11.0175 10.6841 11.1111 10.458 11.1111 10.2222V4.88889C11.1111 4.65314 11.0175 4.42705 10.8508 4.26035C10.6841 4.09365 10.458 4 10.2222 4ZM9.33333 9.33333H5.77778V5.77778H9.33333V9.33333ZM19.1111 4H13.7778C13.542 4 13.3159 4.09365 13.1492 4.26035C12.9825 4.42705 12.8889 4.65314 12.8889 4.88889V10.2222C12.8889 10.458 12.9825 10.6841 13.1492 10.8508C13.3159 11.0175 13.542 11.1111 13.7778 11.1111H19.1111C19.3469 11.1111 19.573 11.0175 19.7397 10.8508C19.9064 10.6841 20 10.458 20 10.2222V4.88889C20 4.65314 19.9064 4.42705 19.7397 4.26035C19.573 4.09365 19.3469 4 19.1111 4ZM18.2222 9.33333H14.6667V5.77778H18.2222V9.33333ZM10.2222 12.8889H4.88889C4.65314 12.8889 4.42705 12.9825 4.26035 13.1492C4.09365 13.3159 4 13.542 4 13.7778V19.1111C4 19.3469 4.09365 19.573 4.26035 19.7397C4.42705 19.9064 4.65314 20 4.88889 20H10.2222C10.458 20 10.6841 19.9064 10.8508 19.7397C11.0175 19.573 11.1111 19.3469 11.1111 19.1111V13.7778C11.1111 13.542 11.0175 13.3159 10.8508 13.1492C10.6841 12.9825 10.458 12.8889 10.2222 12.8889ZM9.33333 18.2222H5.77778V14.6667H9.33333V18.2222ZM16.4444 12.8889C14.4836 12.8889 12.8889 14.4836 12.8889 16.4444C12.8889 18.4053 14.4836 20 16.4444 20C18.4053 20 20 18.4053 20 16.4444C20 14.4836 18.4053 12.8889 16.4444 12.8889ZM16.4444 18.2222C15.464 18.2222 14.6667 17.4249 14.6667 16.4444C14.6667 15.464 15.464 14.6667 16.4444 14.6667C17.4249 14.6667 18.2222 15.464 18.2222 16.4444C18.2222 17.4249 17.4249 18.2222 16.4444 18.2222Z" fill="white"/>
</svg>
