<svg width="24" height="24" viewBox="0 0 24 24" fill="none" xmlns="http://www.w3.org/2000/svg">
<path d="M19.6319 18.4097L19.6322 18.41C19.7013 18.4777 19.7561 18.5582 19.7934 18.6468C19.8308 18.7354 19.85 18.8304 19.85 18.9262C19.85 19.0221 19.8308 19.117 19.7934 19.2056C19.7561 19.2942 19.7013 19.3747 19.6322 19.4425L19.6313 19.4433C19.5627 19.5117 19.481 19.566 19.3909 19.6031C19.3007 19.6402 19.204 19.6593 19.1062 19.6593C19.0085 19.6593 18.9117 19.6402 18.8216 19.6031C18.7315 19.566 18.6498 19.5117 18.5812 19.4433L18.5809 19.4431L15.5686 16.4578L15.4751 16.3652L15.371 16.4458C14.1557 17.3885 12.6546 17.9001 11.109 17.8982H11.1088C9.7321 17.8982 8.38644 17.4948 7.24202 16.7392C6.09762 15.9837 5.20594 14.91 4.67947 13.6541C4.153 12.3983 4.01528 11.0165 4.28365 9.68337C4.55202 8.35027 5.21448 7.12549 6.18756 6.16401C7.16065 5.20252 8.40067 4.54753 9.75089 4.28215C11.1011 4.01678 12.5007 4.15299 13.7724 4.6735C15.0442 5.19401 16.1309 6.07533 16.8953 7.20575C17.6597 8.33614 18.0676 9.66494 18.0676 11.0241L18.0676 11.0243C18.0696 12.5501 17.5522 14.0324 16.5985 15.2331L16.5146 15.3386L16.6106 15.4332L19.6319 18.4097ZM6.55149 8.01329C5.94893 8.90433 5.62721 9.95211 5.62721 11.0241C5.62721 12.4617 6.20518 13.84 7.23337 14.8559C8.26151 15.8718 9.65558 16.4422 11.1088 16.4422C12.1926 16.4422 13.2522 16.1246 14.1536 15.5295C15.055 14.9344 15.7578 14.0883 16.1729 13.0981C16.588 12.1079 16.6967 11.0181 16.485 9.96675C16.2734 8.9154 15.751 7.94992 14.9843 7.19231C14.2175 6.43472 13.2409 5.91899 12.1779 5.71007C11.1149 5.50115 10.0131 5.60836 9.01169 6.01821C8.01026 6.42807 7.15403 7.12227 6.55149 8.01329Z" fill="white" stroke="white" stroke-width="0.3"/>
</svg>
